<?xml version="1.0" encoding="UTF-8" standalone="no"?>
<!-- Created with Inkscape (http://www.inkscape.org/) -->
<svg xmlns:dc="http://purl.org/dc/elements/1.1/" xmlns:cc="http://creativecommons.org/ns#" xmlns:rdf="http://www.w3.org/1999/02/22-rdf-syntax-ns#" xmlns:svg="http://www.w3.org/2000/svg" xmlns="http://www.w3.org/2000/svg" xmlns:xlink="http://www.w3.org/1999/xlink" xmlns:sodipodi="http://sodipodi.sourceforge.net/DTD/sodipodi-0.dtd" xmlns:inkscape="http://www.inkscape.org/namespaces/inkscape" width="744.09448819" height="1052.3622047" id="svg3178" version="1.1" inkscape:version="0.48.2 r9819" sodipodi:docname="New document 3">
  <defs id="defs3180">
    <linearGradient inkscape:collect="always" xlink:href="#linearGradient4038" id="linearGradient4246" gradientUnits="userSpaceOnUse" x1="7" y1="306.98438" x2="94.4375" y2="306.98438"/>
    <linearGradient id="linearGradient4038">
      <stop id="stop4040" offset="0" style="stop-color:#ffffff;stop-opacity:1;"/>
      <stop style="stop-color:#ff0000;stop-opacity:1;" offset="0.5" id="stop4044"/>
      <stop id="stop4042" offset="1" style="stop-color:#5c0000;stop-opacity:1;"/>
    </linearGradient>
    <linearGradient inkscape:collect="always" xlink:href="#linearGradient4038" id="linearGradient4248" gradientUnits="userSpaceOnUse" x1="-76.214287" y1="156.29076" x2="86.214287" y2="186.29076"/>
    <linearGradient id="linearGradient3148">
      <stop id="stop3150" offset="0" style="stop-color:#ffffff;stop-opacity:1;"/>
      <stop style="stop-color:#ff0000;stop-opacity:1;" offset="0.5" id="stop3152"/>
      <stop id="stop3154" offset="1" style="stop-color:#5c0000;stop-opacity:1;"/>
    </linearGradient>
    <linearGradient inkscape:collect="always" xlink:href="#linearGradient4131" id="linearGradient4250" gradientUnits="userSpaceOnUse" x1="12.614846" y1="262.65955" x2="74.651299" y2="274.36417"/>
    <linearGradient id="linearGradient4131">
      <stop style="stop-color:#ffffff;stop-opacity:1;" offset="0" id="stop4133"/>
      <stop id="stop4135" offset="0.61455715" style="stop-color:#ff0000;stop-opacity:1;"/>
      <stop style="stop-color:#5c0000;stop-opacity:1;" offset="1" id="stop4137"/>
    </linearGradient>
    <radialGradient inkscape:collect="always" xlink:href="#linearGradient4038" id="radialGradient4252" gradientUnits="userSpaceOnUse" gradientTransform="matrix(1.524888,0.25537755,-0.24081071,1.4379078,25.973521,-34.26923)" cx="-10.714286" cy="84.505043" fx="-10.714286" fy="84.505043" r="21.214285"/>
    <linearGradient id="linearGradient3162">
      <stop id="stop3164" offset="0" style="stop-color:#ffffff;stop-opacity:1;"/>
      <stop style="stop-color:#ff0000;stop-opacity:1;" offset="0.5" id="stop3166"/>
      <stop id="stop3168" offset="1" style="stop-color:#5c0000;stop-opacity:1;"/>
    </linearGradient>
    <radialGradient r="21.214285" fy="84.505043" fx="-10.714286" cy="84.505043" cx="-10.714286" gradientTransform="matrix(1.524888,0.25537755,-0.24081071,1.4379078,25.973521,-34.26923)" gradientUnits="userSpaceOnUse" id="radialGradient3176" xlink:href="#linearGradient4038" inkscape:collect="always"/>
  </defs>
  <sodipodi:namedview id="base" pagecolor="#ffffff" bordercolor="#666666" borderopacity="1.0" inkscape:pageopacity="0.0" inkscape:pageshadow="2" inkscape:zoom="0.175" inkscape:cx="2541.4124" inkscape:cy="-259.34123" inkscape:document-units="px" inkscape:current-layer="layer1" showgrid="false" inkscape:window-width="1366" inkscape:window-height="744" inkscape:window-x="0" inkscape:window-y="24" inkscape:window-maximized="1"/>
  <g inkscape:label="Layer 1" inkscape:groupmode="layer" id="layer1">
    <g id="g4239" transform="matrix(4.9634476,0,0,4.9457047,118.10255,-760.01463)">
      <path sodipodi:nodetypes="cscccssscccccscc" inkscape:connector-curvature="0" id="path4024-2-0" d="m 56.776941,192.52834 c -11.567225,0 -20.91723,9.27857 -20.91723,20.71875 0,6.941 3.4539,13.08497 8.752375,16.84375 -2.626749,15.90626 -9.93349,28.10556 -14.75581,41.875 -2.031547,1.01864 -3.929739,2.18431 -5.655868,3.46875 -10.267667,6.53521 -16.8728107,16.72645 -16.8728107,28.1875 0,19.72446 19.5670597,35.71875 43.6986847,35.71875 24.131626,0 43.698685,-15.99429 43.698685,-35.71875 0,-11.45977 -6.637566,-21.65215 -16.904408,-28.1875 -0.151454,-0.1127 -0.319968,-0.20171 -0.473955,-0.3125 -0.01253,-0.008 -0.01906,-0.0235 -0.0316,-0.0312 -0.440896,-0.31638 -0.897638,-0.60592 -1.358673,-0.90625 -3.084966,-14.00407 -8.677338,-26.83179 -9.415913,-42.625 6.64423,-3.47278 11.185347,-10.36291 11.185347,-18.3125 0,-11.44018 -9.381603,-20.71875 -20.948827,-20.71875 z" style="fill:none;stroke:#000000;stroke-width:2.01107407;stroke-miterlimit:4;stroke-opacity:1;stroke-dasharray:none"/>
      <path id="path4024-2" d="M 24.84375,274.8125 C 14.306079,281.32543 7.5,291.7261 7.5,303.4375 c 0,19.72446 19.352158,35.71875 43.21875,35.71875 23.866592,0 43.21875,-15.99429 43.21875,-35.71875 0,-11.65359 -6.769678,-22.01239 -17.21875,-28.53125 7.082646,5.13245 11.5,12.32966 11.5,20.3125 0,15.58232 -16.789322,28.21875 -37.5,28.21875 -20.710678,0 -37.5,-12.63643 -37.5,-28.21875 0,-8.03463 4.461528,-15.26767 11.625,-20.40625 z" style="fill:url(#linearGradient4246);fill-opacity:1;stroke:none" inkscape:connector-curvature="0"/>
      <path d="m 26.428572,168.43361 a 37.5,28.214285 0 1 1 -75,0 37.5,28.214285 0 1 1 75,0 z" sodipodi:ry="28.214285" sodipodi:rx="37.5" sodipodi:cy="168.43361" sodipodi:cx="-11.071428" id="path4026-5" style="fill:url(#linearGradient4248);fill-opacity:1;stroke:none" sodipodi:type="arc" transform="matrix(1.0158159,0,0,1.0076752,61.943359,125.7095)"/>
      <path sodipodi:nodetypes="cccccc" inkscape:connector-curvature="0" id="path4102" d="m 45.34375,215.9375 c 0.833334,33.09524 -19.761904,49.40476 -20,80 3.928572,10 14.40954,17.25893 25.133929,17.25893 10.384689,-0.14909 25.549155,-8.24638 26.491071,-14.38393 3.468231,-30.39896 -14.990736,-49.09292 -10.15625,-81.84375 -13.895859,-7.20492 -7.000296,-6.29653 -21.46875,-1.03125 z" style="fill:url(#linearGradient4250);fill-opacity:1;stroke:none"/>
      <path transform="translate(62.142857,125)" d="m 14.999999,88.076469 c 0,11.440184 -9.2741012,20.714281 -20.7142849,20.714281 -11.4401841,0 -20.7142851,-9.274097 -20.7142851,-20.714281 0,-11.440183 9.274101,-20.714284 20.7142851,-20.714284 11.4401837,0 20.7142849,9.274101 20.7142849,20.714284 z" sodipodi:ry="20.714285" sodipodi:rx="20.714285" sodipodi:cy="88.076469" sodipodi:cx="-5.7142859" id="path4028" style="fill:url(#radialGradient3176);fill-opacity:1;stroke:none" sodipodi:type="arc"/>
    </g>
  </g>
  <metadata>
    <rdf:RDF>
      <cc:Work>
        <dc:format>image/svg+xml</dc:format>
        <dc:type rdf:resource="http://purl.org/dc/dcmitype/StillImage"/>
        <cc:license rdf:resource="http://creativecommons.org/licenses/publicdomain/"/>
        <dc:publisher>
          <cc:Agent rdf:about="http://openclipart.org/">
            <dc:title>Open Clip Art Library</dc:title>
          </cc:Agent>
        </dc:publisher>
        <dc:title>Game Player Piece</dc:title>
        <dc:date>2012-03-22T12:26:50</dc:date>
        <dc:description>A generic player piece for board games.  Easily change the color by changing the gradients in Inkscape.</dc:description>
        <dc:source>http://openclipart.org/detail/168998/game-player-piece-by-sjbrown</dc:source>
        <dc:creator>
          <cc:Agent>
            <dc:title>sjbrown</dc:title>
          </cc:Agent>
        </dc:creator>
        <dc:subject>
          <rdf:Bag>
            <rdf:li>Sorry</rdf:li>
            <rdf:li>board game</rdf:li>
            <rdf:li>clip art</rdf:li>
            <rdf:li>clipart</rdf:li>
            <rdf:li>game</rdf:li>
            <rdf:li>piece</rdf:li>
            <rdf:li>player</rdf:li>
            <rdf:li>token</rdf:li>
          </rdf:Bag>
        </dc:subject>
      </cc:Work>
      <cc:License rdf:about="http://creativecommons.org/licenses/publicdomain/">
        <cc:permits rdf:resource="http://creativecommons.org/ns#Reproduction"/>
        <cc:permits rdf:resource="http://creativecommons.org/ns#Distribution"/>
        <cc:permits rdf:resource="http://creativecommons.org/ns#DerivativeWorks"/>
      </cc:License>
    </rdf:RDF>
  </metadata>
</svg>
